<?xml version="1.0" encoding="UTF-8" standalone="no"?>
<!-- Created with Inkscape (http://www.inkscape.org/) -->

<svg
   width="210mm"
   height="297mm"
   viewBox="0 0 210 297"
   version="1.1"
   id="svg177"
   inkscape:version="1.2 (dc2aeda, 2022-05-15)"
   sodipodi:docname="guitto_logo_NEW2.svg"
   xmlns:inkscape="http://www.inkscape.org/namespaces/inkscape"
   xmlns:sodipodi="http://sodipodi.sourceforge.net/DTD/sodipodi-0.dtd"
   xmlns="http://www.w3.org/2000/svg"
   xmlns:svg="http://www.w3.org/2000/svg">
  <sodipodi:namedview
     id="namedview179"
     pagecolor="#ffffff"
     bordercolor="#000000"
     borderopacity="0.25"
     inkscape:showpageshadow="2"
     inkscape:pageopacity="0.0"
     inkscape:pagecheckerboard="0"
     inkscape:deskcolor="#d1d1d1"
     inkscape:document-units="mm"
     showgrid="false"
     showguides="true"
     inkscape:zoom="0.7071068"
     inkscape:cx="427.79959"
     inkscape:cy="649.83111"
     inkscape:window-width="1427"
     inkscape:window-height="941"
     inkscape:window-x="62"
     inkscape:window-y="67"
     inkscape:window-maximized="0"
     inkscape:current-layer="layer1">
    <sodipodi:guide
       position="53.445832,166.825"
       orientation="0,-1"
       id="guide12099"
       inkscape:locked="false" />
    <sodipodi:guide
       position="48.683332,200.16251"
       orientation="0,-1"
       id="guide12101"
       inkscape:locked="false" />
    <sodipodi:guide
       position="112.06611,210.75213"
       orientation="0,-1"
       id="guide12103"
       inkscape:locked="false" />
  </sodipodi:namedview>
  <defs
     id="defs174" />
  <g
     inkscape:label="Livello 1"
     inkscape:groupmode="layer"
     id="layer1">
    <path
       id="path6"
       style="fill:#ffffff;stroke-width:0.125179"
       d="m 63.692899,179.42673 c -0.175923,4.7e-4 -0.175959,4.7e-4 -0.348399,6.6e-4 -1.995669,-0.004 -4.296841,-0.0361 -6.149414,0.8215 -0.04257,0.12767 -0.08387,0.25161 -0.125179,0.37553 -0.500716,0 -0.500723,5e-5 -0.731269,0.0909 l -0.234956,0.12616 c -0.08961,0.0472 -0.176585,0.0929 -0.26356,0.13861 -0.179217,0.0954 -0.359484,0.18888 -0.540812,0.2802 -0.267472,0.13276 -0.267474,0.13276 -1.734413,0.86623 v 0.25035 c -0.170242,0.0426 -0.33548,0.0839 -0.500717,0.12518 v 0.25036 c -0.323991,0 -0.323991,0 -1.001429,0.50072 v 0.25035 h -0.250359 c -1.078561,1.01477 -2.035962,2.15809 -2.876181,3.37618 -0.06753,0.0997 -0.132993,0.19637 -0.198525,0.29314 -0.375328,0.54613 -0.687029,1.05258 -0.887497,1.68747 -0.06975,0.26988 -0.06975,0.26988 -0.1687,0.52663 -0.200195,0.26465 -0.365265,0.47326 -0.482622,0.7853 -0.113051,0.41396 -0.223056,0.82856 -0.356712,1.23639 -0.498447,1.49747 -0.592906,2.96435 -0.593378,4.52991 4.72e-4,0.11066 7.35e-4,0.21802 0.001,0.32542 8.6e-5,1.4029 0.06078,2.75392 0.305124,4.13874 h 0.250359 c 0,0.36837 0.06818,0.66162 0.171875,1.01292 0.02671,0.0866 0.05255,0.17052 0.07848,0.2545 0.349321,1.13191 0.849264,2.18098 1.376969,3.23901 h 0.250358 v 0.25036 c 0.963793,1.5287 2.586613,4.04073 4.413045,4.59152 0.07432,0.0136 0.146445,0.0268 0.218574,0.0402 v 0.25032 h 0.375537 v 0.25036 c 0.347941,0.16059 0.672215,0.31984 0.985785,0.54131 0.939802,0.67813 2.147148,1.3555 3.328488,1.35692 0.223476,-0.0104 0.223476,-0.0104 0.442527,-0.0205 v 0.25036 h 0.876252 v 0.25037 c 0.523596,0.10471 1.023139,0.14144 1.554711,0.1457 0.103186,1.3e-4 0.203262,3.7e-4 0.303413,4.7e-4 0.217759,6.8e-4 0.435518,0.003 0.653278,0.004 0.338882,0 0.677713,8e-5 1.016589,0.004 1.899623,0.0134 3.642859,-0.14552 5.48489,-0.65157 v -0.25037 c 0.850994,0 0.850996,0 3.004295,-1.1711 0.127682,-0.0699 0.25161,-0.13792 0.375536,-0.20586 -0.125178,0.37554 -0.125178,0.37554 -0.195591,0.71195 -0.01861,0.0984 -0.03669,0.19396 -0.05477,0.28948 h -0.250372 l -0.375537,1.50215 h -0.250358 c -0.418247,0.93578 -1.247948,1.65921 -2.020466,2.30895 -0.117541,0.0983 -0.117541,0.0983 -0.232755,0.19464 -0.77365,0.70638 -1.618924,1.18675 -2.644403,1.41607 -0.164923,0.0292 -0.324997,0.0577 -0.485069,0.0861 v 0.25035 h -4.631619 v -0.25035 c -1.322905,-0.28349 -2.542534,-0.86731 -3.388144,-1.96228 -0.235566,-0.32592 -0.458282,-0.63236 -0.742761,-0.91684 -0.376583,-0.11649 -0.376583,-0.11649 -1.001432,0 -0.369591,0.1232 -0.710778,0.18348 -1.095314,0.24253 -0.403298,0.0616 -0.785834,0.13406 -1.178442,0.24596 -0.420761,0.12047 -0.841974,0.23128 -1.26646,0.3374 -0.0969,0.0241 -0.191026,0.0475 -0.285075,0.0709 -0.30668,0.0765 -0.613278,0.15302 -0.920016,0.22933 -0.212598,0.0528 -0.425305,0.10568 -0.637875,0.15868 -0.492458,0.1228 -0.984931,0.24563 -1.477454,0.3682 -0.13592,0.0339 -0.267813,0.0666 -0.399743,0.0995 0.04805,0.34944 0.08959,0.67019 0.232512,0.99434 0.04433,0.0717 0.08729,0.14138 0.130314,0.211 0.07497,0.12188 0.07492,0.12185 0.148405,0.2413 0.05492,0.0854 0.108298,0.16825 0.161608,0.2511 0.850969,1.3381 1.927774,2.9489 3.36076,3.70696 0.07565,0.0351 0.149067,0.0691 0.222487,0.10317 v 0.25036 c 0.289677,0.26739 0.534524,0.38789 0.907546,0.52418 0.117043,0.0346 0.230642,0.0681 0.344243,0.10173 v 0.25034 c 0.375536,0.25036 0.375537,0.25036 0.782367,0.42248 0.158596,0.0627 0.31467,0.13178 0.469422,0.20341 1.51613,0.88786 3.102568,1.56635 4.867308,1.70337 0.21366,0.0146 0.427106,0.0317 0.640564,0.0491 0.139723,0.13973 0.139675,0.13967 0.759142,0.14572 0.092,1.2e-4 0.181352,3.5e-4 0.270651,4.7e-4 0.190701,6.7e-4 0.381405,0.003 0.572107,0.004 0.299317,0 0.598702,7e-5 0.898012,0.004 1.378778,0.0112 2.92041,0.0831 4.230167,-0.40511 0.279334,-0.1298 0.279243,-0.12964 0.58751,-0.20048 0.10025,-0.021 0.197552,-0.0413 0.294855,-0.0616 0.101912,-0.0216 0.200828,-0.0426 0.299745,-0.0636 0.07631,-0.0156 0.150376,-0.0308 0.224441,-0.0459 v -0.25034 c 0.38796,0 0.66979,-0.0913 1.031504,-0.22249 0.08288,-0.0308 0.163317,-0.0606 0.243756,-0.0904 0.284498,-0.10371 0.568773,-0.2079 0.852781,-0.31295 v -0.25037 h 0.375537 c 1.943698,-1.01723 4.112213,-2.59204 5.163631,-4.54702 0.03192,-0.0713 0.06291,-0.14054 0.09388,-0.20976 h 0.250358 c 0.290441,-0.40431 0.290441,-0.40449 0.863049,-1.38822 0.04705,-0.0814 0.09272,-0.16015 0.138382,-0.23912 0.891817,-1.52817 1.628525,-3.11502 1.916802,-4.87415 0.02705,-0.21146 0.05529,-0.42277 0.08606,-0.63371 0.125179,-0.25036 0.12528,-0.25056 0.140826,-0.48312 -3e-5,-0.0982 -1.97e-4,-0.19339 -2.45e-4,-0.28874 2.38e-4,-0.11329 4.75e-4,-0.2233 7.37e-4,-0.33323 -6.16e-4,-0.18598 -4.58e-4,-0.18593 -0.001,-0.36822 3.95e-4,-0.41266 3.7e-4,-0.8254 -2.46e-4,-1.23809 -5.19e-4,-0.3035 -7.35e-4,-0.607 -7.35e-4,-0.91049 2.85e-4,-0.73796 2.69e-4,-1.47588 -4.73e-4,-2.21384 -0.001,-0.96374 -0.0019,-1.92762 -0.002,-2.89134 -2.83e-4,-1.56081 -8.24e-4,-3.12143 -0.002,-4.68223 -0.0011,-1.52206 -0.0022,-3.04431 -0.0027,-4.56635 -5.1e-5,-0.14369 -1.95e-4,-0.14349 -2.45e-4,-0.28434 -1.45e-4,-0.47165 -3.65e-4,-0.94347 -4.73e-4,-1.41511 -0.0013,-3.99845 -0.0036,-7.99672 -0.0064,-11.99519 h -7.76112 v 2.37842 h -0.500715 v -0.25036 c -0.39156,-0.23343 -0.745497,-0.4605 -1.181377,-0.59461 -0.06651,-0.0106 -0.131046,-0.021 -0.195592,-0.0313 v -0.25036 c -0.3262,-0.0764 -0.615456,-0.16898 -0.931019,-0.28948 -0.453681,-0.1735 -0.912368,-0.31993 -1.376967,-0.46159 -0.274162,-0.0824 -0.547963,-0.16592 -0.821487,-0.25038 -0.664866,-0.24871 -1.256462,-0.41953 -1.969367,-0.43738 -0.101459,-4.7e-4 -0.20005,-6.7e-4 -0.298522,-0.002 -0.332813,-0.004 -0.665405,-0.008 -0.998254,-0.008 z m -1.011211,7.67457 c 2.118334,-0.0245 4.287763,0.71164 5.819106,2.00627 1.205127,1.05237 2.057663,2.1941 2.71433,3.65953 0.03873,0.0864 0.07745,0.17267 0.117356,0.26161 0.433242,1.05185 0.40609,2.1766 0.40683,3.29818 0.0015,0.12174 0.003,0.24348 0.0046,0.36893 0.0023,1.12661 -0.167758,2.1324 -0.583598,3.183 l -0.155985,0.40147 c -0.157174,0.35585 -0.318652,0.67917 -0.540324,0.99898 h -0.250357 c -0.01186,0.10165 -0.01186,0.10165 -0.02396,0.20537 -0.143639,0.41912 -0.422099,0.6975 -0.71929,1.01512 -0.05705,0.0635 -0.114085,0.12683 -0.172855,0.19218 -0.147798,0.16056 -0.30383,0.31347 -0.460864,0.46502 h -0.250331 v 0.25035 c -0.270184,0.19507 -0.536156,0.3693 -0.821487,0.53984 -0.125984,0.0754 -0.125984,0.0754 -0.254514,0.15231 -1.834942,1.05856 -4.104188,1.53028 -6.202958,1.10583 -0.202133,-0.0638 -0.403048,-0.13163 -0.601933,-0.20488 -0.368093,-0.13091 -0.746322,-0.16214 -1.13199,-0.21613 -0.305123,-0.133 -0.305123,-0.133 -0.500716,-0.25036 v -0.25036 c -0.126831,-0.0275 -0.253662,-0.0549 -0.384338,-0.0831 -0.555303,-0.15998 -0.925292,-0.46111 -1.352519,-0.84008 -0.07573,-0.066 -0.151551,-0.13199 -0.229576,-0.19999 -0.706623,-0.63479 -1.266472,-1.33681 -1.788934,-2.13146 l -0.201949,-0.30366 c -0.205342,-0.38119 -0.312435,-0.74903 -0.423945,-1.1672 -0.132668,-0.49308 -0.274261,-0.97264 -0.45084,-1.45128 -0.204396,-0.60701 -0.23242,-1.16673 -0.221997,-1.80337 7.35e-4,-0.10831 0.0015,-0.21675 0.0022,-0.32835 0.01805,-0.89932 0.155926,-1.71976 0.42028,-2.58206 h 0.250359 c 0.0051,-0.11617 0.01033,-0.23236 0.01565,-0.35207 0.09442,-0.70597 0.504058,-1.29819 0.860604,-1.90115 h 0.250359 c 0.02357,-0.0846 0.04712,-0.16909 0.07139,-0.25623 0.25311,-0.5228 0.62814,-0.87332 1.039572,-1.27721 l 0.237155,-0.24155 0.231288,-0.22983 0.209773,-0.20855 c 0.237213,-0.18328 0.42157,-0.23888 0.714399,-0.29021 v -0.25036 c 0.247854,-0.0413 0.49571,-0.0826 0.751075,-0.12517 v -0.25037 c 1.085233,-0.60585 2.337916,-0.89433 3.608917,-0.909 z" />
    <path
       id="path4"
       style="fill:#ffffff;stroke-width:0.125179"
       d="m 128.42157,168.85785 v 10.76544 h -15.52219 v 32.17101 h 7.7611 v -25.03578 h 7.88626 v 25.03578 h 7.7611 v -25.16097 c 2.68132,0.0426 5.28379,0.0839 7.88627,0.12519 0.0426,8.51216 0.0839,16.77398 0.12518,25.03578 h 7.51072 c 0.0426,-8.51216 0.0839,-16.77398 0.12518,-25.03578 2.55365,-0.0426 5.0322,-0.0839 7.51074,-0.12519 v 0.6259 h -0.25036 c -0.33201,0.34238 -0.52793,0.64889 -0.65718,1.10313 -0.0474,0.20151 -0.0474,0.20151 -0.0939,0.39901 h -0.25036 c -0.33199,0.57345 -0.46753,1.11162 -0.58433,1.75545 -0.021,0.12493 -0.021,0.12494 -0.0416,0.24742 h -0.25035 c -0.073,0.24022 -0.14567,0.48057 -0.21638,0.72149 -0.0302,0.10316 -0.0595,0.20328 -0.0887,0.30342 -0.44349,1.44478 -0.46587,2.90467 -0.46917,4.40595 0,0.27023 1.7e-4,0.5405 -0.004,0.81074 -0.009,0.92153 -0.0168,1.8256 0.19705,2.72801 0.0399,0.14826 0.0399,0.1483 0.079,0.29363 0.4481,1.7233 1.00831,3.32614 1.87768,4.88199 h 0.25037 v 0.25035 c 0.6929,1.13518 1.45239,2.16016 2.42093,3.07421 l 0.333,0.30562 c 1.27256,1.25539 2.79019,2.31507 4.44532,3.00575 0.1059,0.042 0.20869,0.0829 0.31148,0.12373 0.58172,0.25176 1.13702,0.50335 1.76815,0.59459 0.12237,0.0106 0.24113,0.021 0.3599,0.0313 v 0.25035 c 1.51084,0.28877 2.99113,0.40971 4.52673,0.40783 0.0941,-4.9e-4 0.18562,-6.8e-4 0.277,-6.8e-4 2.34794,-0.004 4.54747,-0.34967 6.71273,-1.28308 v -0.25036 c 0.0823,-0.0142 0.16216,-0.0278 0.24204,-0.0416 0.15828,-0.0303 0.15828,-0.0303 0.31343,-0.0602 0.31246,-0.0573 0.31246,-0.0573 0.57113,-0.14866 0.0426,-0.12768 0.0839,-0.2516 0.12518,-0.37553 0.37554,0 0.37555,0 0.70903,-0.1511 0.12602,-0.0683 0.24832,-0.13464 0.37064,-0.20096 0.3726,-0.19804 0.3726,-0.19804 0.67284,-0.39902 0.0425,-0.12768 0.0838,-0.2516 0.12518,-0.37553 h 0.25036 v -0.25036 c 0.56417,-0.15689 0.88877,-0.46759 1.29164,-0.87086 0.0796,-0.0816 0.15675,-0.16086 0.23397,-0.2401 0.37108,-0.36916 0.75202,-0.70507 1.00216,-1.1689 0.051,-0.11307 0.0509,-0.11289 0.10098,-0.22372 h 0.25036 c 0.12141,-0.26563 0.12141,-0.26563 0.34326,-0.51783 0.39419,-0.47142 0.78585,-0.91058 1.01806,-1.48502 0.0479,-0.12768 0.0944,-0.25161 0.14082,-0.37554 0.43228,-0.43227 0.59459,-0.97006 0.71196,-1.5569 0.0198,-0.16201 0.0198,-0.16201 0.0391,-0.32079 h 0.25036 c 0.0856,-0.2567 0.17114,-0.51343 0.25672,-0.77014 0.0403,-0.1212 0.0796,-0.23883 0.11882,-0.35647 0.23898,-0.66412 0.43171,-1.30987 0.54227,-2.00798 0.0152,-0.10738 0.0298,-0.21143 0.0444,-0.31565 0.39198,-2.7581 0.26104,-5.5349 -0.58677,-8.19139 h -0.25037 c -0.0713,-0.80365 -0.33465,-1.50415 -0.62588,-2.25322 h -0.25035 c 0,-0.37554 0,-0.37554 -0.18289,-0.74082 -0.0814,-0.13914 -0.16054,-0.2742 -0.2396,-0.40927 -0.23766,-0.4122 -0.23766,-0.4122 -0.45378,-0.7276 h -0.25035 c 0,-0.6484 -7e-5,-0.64856 -1.34861,-2.01582 -0.0921,-0.0914 -0.18148,-0.17997 -0.2709,-0.2687 -1.42424,-1.41487 -2.88185,-2.64358 -4.74897,-3.4346 l -0.39118,-0.1643 c -0.41768,-0.2656 -0.81655,-0.46071 -1.28895,-0.61269 -0.0832,-0.0258 -0.16381,-0.0508 -0.24449,-0.0758 -1.73834,-0.56263 -3.48046,-0.74426 -5.29785,-0.74302 -0.22338,2.4e-4 -0.44678,-3.8e-4 -0.67015,-0.002 -0.61288,-0.004 -1.22568,-0.006 -1.83857,-0.007 -0.64942,-6.7e-4 -1.29894,-0.004 -1.94834,-0.006 -1.22787,-0.006 -2.45586,-0.01 -3.68374,-0.0127 -1.68563,-0.004 -3.37116,-0.0103 -5.05679,-0.0171 -1.06279,-0.004 -2.1256,-0.008 -3.18839,-0.012 -1.72488,-0.004 -3.39903,-0.01 -5.07317,-0.0142 -0.0425,-3.61769 -0.0838,-7.12897 -0.12518,-10.64027 h -7.63558 v 10.76546 l -7.76109,-0.12519 c -0.0425,-3.61769 -0.0839,-7.12897 -0.12517,-10.64027 h -7.88628 z m 45.0221,18.23121 c 1.59723,-0.004 3.18825,0.40777 4.54899,1.29678 0.062,0.12393 0.062,0.12393 0.12517,0.25036 0.13555,0.0803 0.13555,0.0803 0.27384,0.16234 0.40998,0.24827 0.75289,0.54642 1.10313,0.87039 0.0663,0.0611 0.13252,0.12229 0.20073,0.18532 1.22079,1.14859 1.2207,1.14866 1.30142,2.0366 h 0.25035 c 0.69813,1.72994 1.07229,3.24691 1.00145,5.13233 -0.004,0.12668 -0.008,0.25335 -0.0113,0.38386 -0.1055,1.97376 -0.95493,3.65828 -2.24197,5.12403 -0.0745,0.0863 -0.14878,0.17265 -0.22542,0.26159 -0.91387,0.98823 -2.14656,1.77219 -3.40478,2.24197 h -0.50071 v 0.25037 c -1.94358,0.55911 -3.71309,0.51481 -5.63305,-0.12518 v -0.25035 c -0.12134,-0.005 -0.2427,-0.0103 -0.36772,-0.0156 -0.55721,-0.0748 -0.93605,-0.36355 -1.38283,-0.68848 -0.25852,-0.1932 -0.25852,-0.1932 -0.62786,-0.2973 -0.21449,-0.20259 -0.42195,-0.41269 -0.62589,-0.62589 -0.15111,-0.14879 -0.30238,-0.29744 -0.45376,-0.44597 -0.79802,-0.79974 -0.79802,-0.79975 -0.79802,-1.18137 h -0.25036 c -0.12312,-0.26052 -0.24554,-0.52138 -0.36771,-0.78235 -0.0682,-0.14523 -0.13653,-0.29047 -0.20684,-0.44009 -0.17653,-0.40488 -0.17653,-0.40488 -0.24743,-0.70023 -0.018,-0.0677 -0.0358,-0.13553 -0.0542,-0.20536 -0.0826,-0.0413 -0.16522,-0.0826 -0.25035,-0.12518 -0.69788,-1.95597 -0.61005,-4.33554 0.12519,-6.25895 h 0.25035 c 0.008,-0.12134 0.0154,-0.24269 0.0235,-0.36771 0.0837,-0.61898 0.4054,-1.1108 0.72761,-1.63516 h 0.25036 c 0.0274,-0.0882 0.0549,-0.17652 0.0832,-0.26746 0.20653,-0.44268 0.49586,-0.74862 0.84007,-1.08603 0.0664,-0.0655 0.13283,-0.13103 0.20121,-0.19852 1.66174,-1.5963 4.00937,-2.4923 6.34379,-2.49869 z" />
    <path
       d="m 81.730158,179.49804 c 2.602471,0 5.204937,0 7.886252,0 0.002,0.55504 0.004,1.11008 0.006,1.68195 0.006,1.84216 0.0146,3.6843 0.024,5.52645 0.006,1.11594 0.0105,2.23187 0.0138,3.34781 0.003,0.97392 0.007,1.94782 0.0128,2.92172 0.003,0.51453 0.005,1.02906 0.006,1.54358 -0.20931,3.6598 -0.20931,3.6598 0.813954,7.01 0.049,0.13167 0.0981,0.26334 0.14865,0.39901 0.535807,1.27812 1.614901,2.24106 2.871285,2.76957 0.450297,0.16748 0.881194,0.28588 1.361311,0.33643 0,0.0826 0,0.16523 0,0.25035 1.732921,-0.0244 1.732921,-0.0244 3.379822,-0.50073 0.0958,-0.039 0.191697,-0.0781 0.290447,-0.11832 1.475511,-0.61846 2.518621,-1.56544 3.214541,-3.01114 0.65517,-1.67953 0.91358,-3.21392 0.91616,-5.01822 0.002,-0.18765 0.003,-0.37529 0.004,-0.56293 0.004,-0.50578 0.005,-1.01159 0.007,-1.51739 0.003,-0.52993 0.005,-1.05986 0.008,-1.58979 0.006,-1.00189 0.0105,-2.00378 0.0147,-3.00568 0.004,-1.1413 0.011,-2.2826 0.0173,-3.4239 0.0129,-2.34624 0.0239,-4.69249 0.0341,-7.03877 2.68508,0 5.37015,0 8.13661,0 0.004,4.11222 0.005,8.22443 0.007,12.33665 1.2e-4,0.48496 3.8e-4,0.96992 5.2e-4,1.45489 4e-5,0.14484 4e-5,0.14484 9e-5,0.29259 5.3e-4,1.56544 0.002,3.13087 0.004,4.69631 0.002,1.60507 0.002,3.21015 0.003,4.81522 1.3e-4,0.99123 7.4e-4,1.98246 0.002,2.97367 7.3e-4,0.75878 7.4e-4,1.51755 6.1e-4,2.27633 5e-5,0.31222 2.6e-4,0.62445 7.4e-4,0.93666 6.1e-4,0.42425 5.2e-4,0.84848 1.3e-4,1.27271 5.1e-4,0.18795 5.1e-4,0.18795 7.5e-4,0.37969 -2.5e-4,0.11276 -5.2e-4,0.2255 -7.4e-4,0.34167 5e-5,0.0981 9e-5,0.19612 1.3e-4,0.29715 -0.0155,0.22263 -0.0155,0.22263 -0.14069,0.34782 -0.23049,0.0117 -0.46142,0.0146 -0.69219,0.0142 -0.14786,0 -0.29571,-2e-5 -0.44804,-2e-5 -0.16091,-4.8e-4 -0.32181,-0.002 -0.48759,-0.003 -0.24563,-2.6e-4 -0.24563,-2.6e-4 -0.49622,-4.7e-4 -0.43607,-4.8e-4 -0.87215,-0.003 -1.30823,-0.004 -0.44468,-0.002 -0.88938,-0.003 -1.33407,-0.004 -0.87307,-0.002 -1.74615,-0.004 -2.61922,-0.006 -0.0413,-0.99141 -0.0826,-1.98284 -0.12518,-3.00429 -0.13167,0.19363 -0.26335,0.38727 -0.39901,0.58677 -0.33522,0.4786 -0.67252,0.89341 -1.10314,1.29091 -0.059,0.0629 -0.11811,0.12586 -0.17896,0.19071 -0.40895,0.43436 -0.77053,0.69146 -1.32319,0.9359 -0.0915,0.0488 -0.18298,0.0978 -0.277247,0.14817 -1.650251,0.87856 -3.282032,1.00217 -5.121063,1.00973 -0.230907,0.004 -0.230907,0.004 -0.466487,0.008 -1.103904,0.004 -2.079658,-0.14227 -3.148032,-0.41465 0,-0.0826 0,-0.16524 0,-0.25036 -0.0852,-0.0155 -0.1704,-0.031 -0.258177,-0.0469 -1.699241,-0.36154 -3.396272,-1.24007 -4.748953,-2.33144 0,-0.0826 0,-0.16525 0,-0.25037 -0.0704,-0.01 -0.14071,-0.0191 -0.2132,-0.0289 -1.114879,-0.37353 -1.976088,-1.88167 -2.540735,-2.85027 -0.04131,-0.12391 -0.08262,-0.24785 -0.12518,-0.37553 -0.05954,-0.0588 -0.119085,-0.11748 -0.180433,-0.17799 -1.706445,-1.72783 -1.466449,-5.62719 -1.461103,-7.84635 3.5e-5,-0.2087 1.5e-5,-0.41737 -5.6e-5,-0.62605 -3.4e-5,-0.56086 7.36e-4,-1.12171 0.0015,-1.68257 8.25e-4,-0.58824 9.27e-4,-1.17647 0.001,-1.7647 3.87e-4,-1.11139 0.0014,-2.22276 0.0027,-3.33414 0.0014,-1.26634 0.0021,-2.53268 0.0027,-3.79901 0.0013,-2.60261 0.0036,-5.20523 0.0063,-7.80786 z"
       fill="#fafbfa"
       id="path8"
       style="fill:#ffffff;stroke-width:0.125179" />
    <path
       d="m 112.77445,179.49804 c 5.16363,0 10.32727,0 15.64737,0 0,0.0413 0,0.0826 0,0.12518 -5.12233,0 -10.24465,0 -15.52219,0 0,10.61645 0,21.23286 0,32.17099 2.56116,0 5.12233,0 7.76109,0 0,-8.2618 0,-16.52361 0,-25.03577 2.60246,0 5.20494,0 7.88628,0 0,8.2618 0,16.52361 0,25.03577 2.56115,0 5.12231,0 7.76108,0 0,-8.30311 0,-16.60623 0,-25.16096 2.60248,0 5.20494,0 7.88627,0 0.2189,0.2189 0.14052,0.50495 0.14134,0.79661 -3.8e-4,0.0971 -6.6e-4,0.1941 -6.6e-4,0.29408 1.2e-4,0.15351 1.2e-4,0.15351 3.9e-4,0.31014 2.3e-4,0.34559 -4.9e-4,0.69117 -6.8e-4,1.03677 -3e-5,0.24667 -2e-5,0.49334 5e-5,0.74001 3e-5,0.67192 -6.8e-4,1.34381 -0.002,2.01572 -6.7e-4,0.70134 -6.7e-4,1.4027 -6.7e-4,2.10404 -3.7e-4,1.32911 -0.002,2.65822 -0.004,3.98734 -0.002,1.51271 -0.003,3.02543 -0.004,4.53814 -0.002,3.11271 -0.004,6.22541 -0.006,9.33811 2.47855,0 4.95708,0 7.51074,0 -6.7e-4,-1.13662 -6.7e-4,-1.13662 -0.003,-2.29622 -0.003,-2.49669 -0.004,-4.99338 -0.004,-7.49007 -4.8e-4,-1.51453 -0.002,-3.02906 -0.004,-4.5436 -0.002,-1.31955 -0.003,-2.6391 -0.004,-3.95865 -1.4e-4,-0.69916 -4.9e-4,-1.39833 -0.002,-2.09748 -6.8e-4,-0.65725 -6.8e-4,-1.31449 -6.8e-4,-1.97176 -2e-5,-0.24197 -2.4e-4,-0.48394 -6.7e-4,-0.72592 -4.7e-4,-0.32885 -4.7e-4,-0.6577 -1.2e-4,-0.98657 -4.7e-4,-0.14557 -4.7e-4,-0.14557 -6.7e-4,-0.29408 0.003,-0.65713 0.003,-0.65713 0.14135,-0.79661 0.2343,-0.0117 0.46906,-0.0146 0.70367,-0.0142 0.22553,2e-5 0.22553,2e-5 0.45562,2e-5 0.16366,4.8e-4 0.3273,0.002 0.4959,0.003 0.16822,2.3e-4 0.33643,4.2e-4 0.50464,4.7e-4 0.44348,4.8e-4 0.88696,0.003 1.33044,0.004 0.45226,0.002 0.90449,0.003 1.35674,0.004 0.8879,0.002 1.77581,0.004 2.66372,0.006 0,0.20654 0,0.4131 0,0.62589 -0.0826,0 -0.16524,0 -0.25036,0 0,-0.12392 0,-0.24785 0,-0.37553 -2.35461,0 -4.70922,0 -7.1352,0 0,8.26181 0,16.52362 0,25.03578 -2.60247,0 -5.20495,0 -7.88628,0 0,-8.26181 0,-16.52361 0,-25.03578 -2.56115,0 -5.12232,0 -7.76109,0 0,8.30312 0,16.60623 0,25.16096 -2.64378,0 -5.28756,0 -8.01145,0 0,-8.30312 0,-16.60624 0,-25.16096 -2.51984,0 -5.0397,0 -7.63591,0 0,8.30312 0,16.60623 0,25.16096 -2.64377,0 -5.28755,0 -8.01145,0 -1.5e-4,-10.74035 -1.5e-4,-21.48071 -1.5e-4,-32.54654 z"
       fill="#737373"
       id="path14"
       style="fill:#ffffff;stroke-width:0.125179" />
    <path
       d="m 136.30808,186.63325 c 1.02608,-0.004 2.05217,-0.005 3.07824,-0.007 0.47641,-4.7e-4 0.95282,-0.002 1.42921,-0.004 0.45939,-0.002 0.91878,-0.003 1.37818,-0.004 0.17564,-2.4e-4 0.35128,-4.7e-4 0.52691,-0.002 0.24519,-6.7e-4 0.49039,-6.7e-4 0.73558,-6.7e-4 0.13983,-2.9e-4 0.27965,-4.8e-4 0.4237,-6.6e-4 0.31445,0.015 0.31445,0.015 0.43963,0.14023 0.0122,0.32293 0.0162,0.64251 0.015,0.96549 1e-4,0.10235 2e-4,0.2047 3.3e-4,0.31014 2.1e-4,0.34559 -4.8e-4,0.69118 -6.8e-4,1.03677 -3e-5,0.24667 -1e-5,0.49336 5e-5,0.74003 4e-5,0.6719 -4.6e-4,1.34381 -0.002,2.01571 -6.7e-4,0.70135 -6.7e-4,1.40269 -6.7e-4,2.10405 -3.8e-4,1.3291 -0.002,2.6582 -0.004,3.98732 -0.002,1.51273 -0.003,3.02543 -0.004,4.53815 -0.002,3.1127 -0.004,6.22541 -0.006,9.33812 2.47854,0 4.95708,0 7.51074,0 -4.8e-4,-0.75776 -0.002,-1.51552 -0.003,-2.29623 -0.003,-2.49669 -0.004,-4.99338 -0.004,-7.49007 -4.8e-4,-1.51454 -0.002,-3.02907 -0.004,-4.54361 -0.002,-1.31955 -0.003,-2.6391 -0.004,-3.95865 -1.3e-4,-0.69915 -4.8e-4,-1.39831 -0.002,-2.09747 -6.7e-4,-0.65725 -6.7e-4,-1.3145 -6.7e-4,-1.97175 -3e-5,-0.24198 -2.6e-4,-0.48396 -6.7e-4,-0.72594 -4.8e-4,-0.32885 -4.8e-4,-0.65771 -1.3e-4,-0.98657 -3.7e-4,-0.097 -6.6e-4,-0.19408 -6.6e-4,-0.29408 0.003,-0.65714 0.003,-0.65714 0.14128,-0.79659 0.23431,-0.0118 0.46907,-0.0146 0.70367,-0.0142 0.22554,2e-5 0.22554,2e-5 0.45564,3e-5 0.16364,4.8e-4 0.32728,0.002 0.49588,0.003 0.16821,2.3e-4 0.33643,4e-4 0.50465,4.7e-4 0.44349,4.7e-4 0.88696,0.003 1.33044,0.004 0.45225,0.002 0.90449,0.003 1.35672,0.004 0.88792,0.002 1.77583,0.004 2.66374,0.006 0,0.20653 0,0.41307 0,0.62589 -0.0826,0 -0.16524,0 -0.25038,0 0,-0.12393 0,-0.24786 0,-0.37553 -2.35461,0 -4.70922,0 -7.13518,0 0,8.26179 0,16.5236 0,25.03577 -2.60248,0 -5.20495,0 -7.88627,0 -0.0413,-8.26181 -0.0826,-16.52361 -0.12518,-25.03577 -2.56115,-0.0413 -5.12232,-0.0826 -7.76109,-0.12519 0,-0.0413 0,-0.0826 0,-0.12517 z"
       fill="#acacab"
       id="path16"
       style="fill:#ffffff;stroke-width:0.125179" />
    <path
       d="m 144.19435,168.73259 c 1.00977,-0.004 2.01952,-0.005 3.02928,-0.007 0.46883,-6.6e-4 0.93764,-0.002 1.40648,-0.004 0.45208,-0.002 0.90416,-0.003 1.35626,-0.004 0.17285,-2.2e-4 0.34568,-6.5e-4 0.51852,-0.002 0.24129,-6.7e-4 0.4826,-6.7e-4 0.7239,-6.7e-4 0.13759,-2.7e-4 0.2752,-5.6e-4 0.41696,-6.6e-4 0.3097,0.015 0.3097,0.015 0.43488,0.14023 0.012,0.32758 0.0157,0.65185 0.0142,0.97946 2e-5,0.10259 4e-5,0.20516 5e-5,0.31085 -7e-5,0.34071 -6.7e-4,0.68139 -0.003,1.02209 -2.2e-4,0.23558 -4e-4,0.47116 -4.7e-4,0.70672 -4.7e-4,0.62129 -0.003,1.24258 -0.004,1.86387 -0.002,0.63347 -0.003,1.26696 -0.004,1.90043 -0.002,1.2439 -0.004,2.48779 -0.006,3.73168 0.11446,-3.6e-4 0.22893,-6.7e-4 0.34686,-6.7e-4 2.7953,-0.009 5.59059,-0.0145 8.3859,-0.0183 1.35183,-0.003 2.70365,-0.004 4.05548,-0.008 1.17934,-0.004 2.35867,-0.006 3.53801,-0.007 0.62347,-4.6e-4 1.24692,-0.002 1.87038,-0.004 0.58895,-0.004 1.17786,-0.004 1.76681,-0.004 0.21413,-1e-4 0.42826,-6.7e-4 0.64238,-0.004 1.15784,-0.008 2.28081,0.0515 3.42764,0.21955 0.10715,0.0157 0.2143,0.0312 0.3247,0.0473 0.48469,0.0776 0.76058,0.12527 1.17834,0.40378 -0.18866,-0.0265 -0.18866,-0.0265 -0.38114,-0.0535 -1.38699,-0.18455 -2.74896,-0.23451 -4.14682,-0.23487 -0.23196,-6.6e-4 -0.46393,-0.003 -0.6959,-0.004 -0.49456,-0.004 -0.98912,-0.004 -1.48369,-0.004 -0.78158,-0.002 -1.56317,-0.004 -2.34476,-0.008 -1.23445,-0.005 -2.46892,-0.009 -3.70339,-0.0128 -2.21648,-0.007 -4.43295,-0.0142 -6.64943,-0.0232 -0.77767,-0.004 -1.55534,-0.005 -2.33302,-0.008 -0.48143,-0.002 -0.96285,-0.004 -1.44428,-0.004 -0.22401,-6.8e-4 -0.44802,-0.002 -0.67204,-0.003 -0.30435,-4.6e-4 -0.60869,-0.003 -0.91304,-0.004 -0.13463,8e-5 -0.13463,8e-5 -0.27198,1.6e-4 -0.6079,-0.004 -0.6079,-0.004 -0.74737,-0.14345 -0.012,-0.3314 -0.0157,-0.65952 -0.0142,-0.99094 -3e-5,-0.10381 -5e-5,-0.20762 -7e-5,-0.31456 9e-5,-0.34477 6.8e-4,-0.68951 0.003,-1.03427 2.4e-4,-0.23838 4.2e-4,-0.47676 4.8e-4,-0.71514 4.7e-4,-0.62871 0.003,-1.2574 0.004,-1.88611 0.002,-0.75365 0.003,-1.50729 0.004,-2.26094 0.002,-1.1461 0.004,-2.2922 0.006,-3.43831 -2.51986,0 -5.03971,0 -7.63592,0 0,-0.0413 0,-0.0826 0,-0.12517 z"
       fill="#6d6d6c"
       id="path20"
       style="fill:#ffffff;stroke-width:0.125179" />
    <path
       d="m 151.95545,186.63325 c 2.47854,0 4.95709,0 7.51074,0 0,0.20655 0,0.4131 0,0.6259 -0.0826,0 -0.16524,0 -0.25037,0 0,-0.12393 0,-0.24786 0,-0.37553 -2.35461,0 -4.70924,0 -7.13519,0 0,8.2618 0,16.52361 0,25.03578 -0.0413,0 -0.0826,0 -0.12518,0 0,-8.34443 0,-16.68887 0,-25.28615 z"
       fill="#5b595a"
       id="path22"
       style="fill:#ffffff;stroke-width:0.125179" />
    <path
       d="m 52.313114,183.12824 c 0,0.37555 0,0.37555 -0.172365,0.59054 -0.07867,0.0767 -0.15733,0.1534 -0.238378,0.23242 -0.08471,0.0835 -0.169432,0.16701 -0.256715,0.25304 -0.08955,0.0865 -0.179113,0.17283 -0.271383,0.26186 -0.134335,0.1318 -0.134335,0.1318 -0.271383,0.26624 -0.221672,0.21724 -0.44417,0.43356 -0.667458,0.64913 -0.08262,-0.0413 -0.165237,-0.0826 -0.250359,-0.12518 0.218163,-0.246 0.43733,-0.49095 0.65719,-0.73543 0.06148,-0.0695 0.122958,-0.13909 0.1863,-0.21075 0.316708,-0.35049 0.586668,-0.63797 1.034193,-0.80632 0,-0.0826 0,-0.16525 0,-0.25036 0.08262,-0.0413 0.165238,-0.0826 0.250358,-0.12519 z"
       fill="#cacaca"
       id="path26"
       style="fill:#ffffff;stroke-width:0.125179" />
    <path
       d="m 167.97835,189.01165 c -0.20764,0.54141 -0.60976,0.88805 -1.01708,1.28309 -0.0706,0.0694 -0.14104,0.13876 -0.21369,0.21026 -0.17335,0.1704 -0.34746,0.34005 -0.52174,0.50952 -0.0826,-0.0413 -0.16524,-0.0826 -0.25036,-0.12518 1.67351,-1.87769 1.67351,-1.87769 2.00287,-1.87769 z"
       fill="#3b3c3c"
       id="path28"
       style="fill:#ffffff;stroke-width:0.125179" />
    <path
       d="m 103.26085,208.78992 c 0.0413,0 0.0826,0 0.12519,0 0,0.99142 0,1.98283 0,3.00429 -0.0413,0 -0.0826,0 -0.12519,0 -0.0413,-0.74355 -0.0826,-1.48712 -0.12518,-2.25321 -0.0826,0 -0.16523,0 -0.25035,0 0.23472,-0.61024 0.23472,-0.61024 0.37553,-0.75108 z"
       fill="#3d3e3d"
       id="path32"
       style="fill:#ffffff;stroke-width:0.125179" />
    <path
       d="m 23.195129,173.04319 v 4.33851 h 3.9914 3.991412 v -4.33851 -4.33851 h -3.991412 -3.9914 z"
       id="path1580"
       style="fill:#ffffff;stroke-width:0.0347079" />
    <path
       d="m 33.260417,190.39719 v 21.69242 h 3.991402 3.991411 v -21.69242 -21.69251 h -3.991411 -3.991402 z"
       id="path1582"
       style="fill:#ffffff;stroke-width:0.0347079" />
    <path
       d="m 23.195129,195.7769 v 16.31271 h 3.9914 3.991412 V 195.7769 179.46419 h -3.991412 -3.9914 z"
       id="path1588"
       style="fill:#ffffff;stroke-width:0.0347079" />
  </g>
</svg>
